{
  "accessors": [
    {
      "bufferView": 2,
      "componentType": 5126,
      "count": 1387,
      "max": [
        0.4639585316181183,
        0.08968575298786163,
        1.4259980916976929
      ],
      "min": [
        -0.4639582931995392,
        -0.17666131258010864,
        0.01060042716562748
      ],
      "type": "VEC3"
    },
    {
      "bufferView": 2,
      "byteOffset": 16644,
      "componentType": 5126,
      "count": 1387,
      "max": [
        0.9996823072433472,
        0.999790370464325,
        0.9600089192390442
      ],
      "min": [
        -0.9996823072433472,
        -0.9993904232978821,
        -0.9996604919433594
      ],
      "type": "VEC3"
    },
    {
      "bufferView": 1,
      "componentType": 5126,
      "count": 1387,
      "max": [
        0.9857609868049622,
        -0.09763193130493164
      ],
      "min": [
        0.018730999901890755,
        -0.9892200231552124
      ],
      "type": "VEC2"
    },
    {
      "bufferView": 0,
      "componentType": 5125,
      "count": 6360,
      "type": "SCALAR"
    },
    {
      "bufferView": 2,
      "byteOffset": 33288,
      "componentType": 5126,
      "count": 1706,
      "max": [
        0.22285707294940948,
        0.167412668466568,
        0.259970098733902
      ],
      "min": [
        -0.22286085784435272,
        -0.18104338645935059,
        -0.00021378981182351708
      ],
      "type": "VEC3"
    },
    {
      "bufferView": 2,
      "byteOffset": 53760,
      "componentType": 5126,
      "count": 1706,
      "max": [
        0.999123752117157,
        0.9986036419868469,
        0.9975073933601379
      ],
      "min": [
        -0.999123752117157,
        -0.9114882946014404,
        -0.9984923005104065
      ],
      "type": "VEC3"
    },
    {
      "bufferView": 1,
      "byteOffset": 11096,
      "componentType": 5126,
      "count": 1706,
      "max": [
        0.9960600137710571,
        -0.005813479423522949
      ],
      "min": [
        0.0,
        -1.0
      ],
      "type": "VEC2"
    },
    {
      "bufferView": 0,
      "byteOffset": 25440,
      "componentType": 5125,
      "count": 5988,
      "type": "SCALAR"
    },
    {
      "bufferView": 2,
      "byteOffset": 74232,
      "componentType": 5126,
      "count": 2162,
      "max": [
        0.09455487877130508,
        0.0490245558321476,
        1.7368123531341553
      ],
      "min": [
        -0.09455547481775284,
        -0.1571446806192398,
        1.425874948501587
      ],
      "type": "VEC3"
    },
    {
      "bufferView": 2,
      "byteOffset": 100176,
      "componentType": 5126,
      "count": 2162,
      "max": [
        0.999268114566803,
        0.9999639987945557,
        0.9995899796485901
      ],
      "min": [
        -0.9992666244506836,
        -0.9999717473983765,
        -0.999981164932251
      ],
      "type": "VEC3"
    },
    {
      "bufferView": 1,
      "byteOffset": 24744,
      "componentType": 5126,
      "count": 2162,
      "max": [
        0.9943000078201294,
        -0.004350006580352783
      ],
      "min": [
        0.004999999888241291,
        -0.9807000160217285
      ],
      "type": "VEC2"
    },
    {
      "bufferView": 0,
      "byteOffset": 49392,
      "componentType": 5125,
      "count": 12282,
      "type": "SCALAR"
    },
    {
      "bufferView": 2,
      "byteOffset": 126120,
      "componentType": 5126,
      "count": 813,
      "max": [
        0.4298347234725952,
        0.07954958081245422,
        1.5079931020736694
      ],
      "min": [
        -0.42983478307724,
        -0.15138764679431915,
        1.0146452188491821
      ],
      "type": "VEC3"
    },
    {
      "bufferView": 2,
      "byteOffset": 135876,
      "componentType": 5126,
      "count": 813,
      "max": [
        0.9951456785202026,
        0.9998890161514282,
        0.9982093572616577
      ],
      "min": [
        -0.9994788765907288,
        -0.9999037384986877,
        -0.9984977841377258
      ],
      "type": "VEC3"
    },
    {
      "bufferView": 1,
      "byteOffset": 42040,
      "componentType": 5126,
      "count": 813,
      "max": [
        0.9922719597816467,
        -0.0020026564598083496
      ],
      "min": [
        0.0003424212336540222,
        -0.9968258142471313
      ],
      "type": "VEC2"
    },
    {
      "bufferView": 0,
      "byteOffset": 98520,
      "componentType": 5125,
      "count": 2973,
      "type": "SCALAR"
    },
    {
      "bufferView": 2,
      "byteOffset": 145632,
      "componentType": 5126,
      "count": 769,
      "max": [
        0.11377768218517303,
        0.0835585668683052,
        1.763117790222168
      ],
      "min": [
        -0.11491847783327103,
        -0.15681210160255432,
        1.473388433456421
      ],
      "type": "VEC3"
    },
    {
      "bufferView": 2,
      "byteOffset": 154860,
      "componentType": 5126,
      "count": 769,
      "max": [
        0.9998927116394043,
        0.9950908422470093,
        0.9984397888183594
      ],
      "min": [
        -0.9996461868286133,
        -0.9987706542015076,
        -0.9774425029754639
      ],
      "type": "VEC3"
    },
    {
      "bufferView": 1,
      "byteOffset": 48544,
      "componentType": 5126,
      "count": 769,
      "max": [
        0.9954569935798645,
        -0.029020369052886963
      ],
      "min": [
        0.004082067403942347,
        -0.9934333562850952
      ],
      "type": "VEC2"
    },
    {
      "bufferView": 0,
      "byteOffset": 110412,
      "componentType": 5125,
      "count": 3978,
      "type": "SCALAR"
    },
    {
      "bufferView": 2,
      "byteOffset": 164088,
      "componentType": 5126,
      "count": 1345,
      "max": [
        0.20651432871818542,
        0.09310443699359894,
        1.151719331741333
      ],
      "min": [
        -0.20651628077030182,
        -0.15690864622592926,
        0.18383659422397614
      ],
      "type": "VEC3"
    },
    {
      "bufferView": 2,
      "byteOffset": 180228,
      "componentType": 5126,
      "count": 1345,
      "max": [
        0.9997078776359558,
        0.9991168975830078,
        0.9999911189079285
      ],
      "min": [
        -0.9997019171714783,
        -0.9996271133422852,
        -0.9990931749343872
      ],
      "type": "VEC3"
    },
    {
      "bufferView": 1,
      "byteOffset": 54696,
      "componentType": 5126,
      "count": 1345,
      "max": [
        0.9770564436912537,
        -0.025870323181152344
      ],
      "min": [
        0.022253036499023438,
        -0.97398841381073
      ],
      "type": "VEC2"
    },
    {
      "bufferView": 0,
      "byteOffset": 126324,
      "componentType": 5125,
      "count": 6870,
      "type": "SCALAR"
    },
    {
      "bufferView": 2,
      "byteOffset": 196368,
      "componentType": 5126,
      "count": 84,
      "max": [
        0.026736479252576828,
        -0.0741019994020462,
        1.5780305862426758
      ],
      "min": [
        -0.026736536994576454,
        -0.1381511390209198,
        1.5430164337158203
      ],
      "type": "VEC3"
    },
    {
      "bufferView": 2,
      "byteOffset": 197376,
      "componentType": 5126,
      "count": 84,
      "max": [
        0.9971758723258972,
        0.7522380948066711,
        0.874203085899353
      ],
      "min": [
        -0.997175931930542,
        -0.9986749291419983,
        -0.9889448881149292
      ],
      "type": "VEC3"
    },
    {
      "bufferView": 1,
      "byteOffset": 65456,
      "componentType": 5126,
      "count": 84,
      "max": [
        0.9808249473571777,
        -0.02829587459564209
      ],
      "min": [
        0.051069796085357666,
        -0.983213484287262
      ],
      "type": "VEC2"
    },
    {
      "bufferView": 0,
      "byteOffset": 153804,
      "componentType": 5125,
      "count": 300,
      "type": "SCALAR"
    },
    {
      "bufferView": 2,
      "byteOffset": 198384,
      "componentType": 5126,
      "count": 240,
      "max": [
        0.0563846230506897,
        -0.10935591161251068,
        1.6467186212539673
      ],
      "min": [
        -0.05652447044849396,
        -0.13113439083099365,
        1.6029253005981445
      ],
      "type": "VEC3"
    },
    {
      "bufferView": 2,
      "byteOffset": 201264,
      "componentType": 5126,
      "count": 240,
      "max": [
        0.9405980706214905,
        1.0,
        0.9512254595756531
      ],
      "min": [
        -0.9491546750068665,
        -1.0,
        -0.9485148787498474
      ],
      "type": "VEC3"
    },
    {
      "bufferView": 1,
      "byteOffset": 66128,
      "componentType": 5126,
      "count": 240,
      "max": [
        0.9646214246749878,
        -0.020990610122680664
      ],
      "min": [
        0.006885886192321777,
        -0.9818061590194702
      ],
      "type": "VEC2"
    },
    {
      "bufferView": 0,
      "byteOffset": 155004,
      "componentType": 5125,
      "count": 1236,
      "type": "SCALAR"
    }
  ],
  "asset": {
    "extras": {
      "author": "HackNetAyush (https://sketchfab.com/Hackpur)",
      "license": "CC-BY-4.0 (http://creativecommons.org/licenses/by/4.0/)",
      "source": "https://sketchfab.com/3d-models/cute-female-full-body-3d-model-77f49ac4ceab4e71833735fba788bcc3",
      "title": "Cute Female Full Body 3D Model"
    },
    "generator": "Sketchfab-12.63.0",
    "version": "2.0"
  },
  "bufferViews": [
    {
      "buffer": 0,
      "byteLength": 159948,
      "name": "floatBufferViews",
      "target": 34963
    },
    {
      "buffer": 0,
      "byteLength": 68048,
      "byteOffset": 159948,
      "byteStride": 8,
      "name": "floatBufferViews",
      "target": 34962
    },
    {
      "buffer": 0,
      "byteLength": 204144,
      "byteOffset": 227996,
      "byteStride": 12,
      "name": "floatBufferViews",
      "target": 34962
    }
  ],
  "buffers": [
    {
      "byteLength": 432140,
      "uri": "scene.bin"
    }
  ],
  "images": [
    {
      "uri": "textures/Wolf3D_Body_baseColor.jpeg"
    },
    {
      "uri": "textures/Wolf3D_Eye_baseColor.jpeg"
    },
    {
      "uri": "textures/Wolf3D_Hair_baseColor.jpeg"
    },
    {
      "uri": "textures/Wolf3D_Outfit_Bottom_baseColor.jpeg"
    },
    {
      "uri": "textures/Wolf3D_Outfit_Footwear_baseColor.jpeg"
    },
    {
      "uri": "textures/Wolf3D_Outfit_Top_baseColor.jpeg"
    },
    {
      "uri": "textures/Wolf3D_Skin_baseColor.jpeg"
    },
    {
      "uri": "textures/Wolf3D_Teeth_baseColor.jpeg"
    }
  ],
  "materials": [
    {
      "doubleSided": true,
      "name": "Wolf3D_Body",
      "pbrMetallicRoughness": {
        "baseColorTexture": {
          "index": 0
        },
        "metallicFactor": 0.0
      }
    },
    {
      "doubleSided": true,
      "name": "Wolf3D_Eye",
      "pbrMetallicRoughness": {
        "baseColorTexture": {
          "index": 1
        },
        "metallicFactor": 0.0
      }
    },
    {
      "doubleSided": true,
      "name": "Wolf3D_Hair",
      "pbrMetallicRoughness": {
        "baseColorTexture": {
          "index": 2
        },
        "metallicFactor": 0.0
      }
    },
    {
      "doubleSided": true,
      "name": "Wolf3D_Outfit_Bottom",
      "pbrMetallicRoughness": {
        "baseColorTexture": {
          "index": 3
        },
        "metallicFactor": 0.0
      }
    },
    {
      "doubleSided": true,
      "name": "Wolf3D_Outfit_Footwear",
      "pbrMetallicRoughness": {
        "baseColorTexture": {
          "index": 4
        },
        "metallicFactor": 0.0
      }
    },
    {
      "doubleSided": true,
      "name": "Wolf3D_Outfit_Top",
      "pbrMetallicRoughness": {
        "baseColorTexture": {
          "index": 5
        },
        "metallicFactor": 0.0
      }
    },
    {
      "doubleSided": true,
      "name": "Wolf3D_Skin",
      "pbrMetallicRoughness": {
        "baseColorTexture": {
          "index": 6
        },
        "metallicFactor": 0.0
      }
    },
    {
      "doubleSided": true,
      "name": "Wolf3D_Teeth",
      "pbrMetallicRoughness": {
        "baseColorTexture": {
          "index": 7
        },
        "metallicFactor": 0.0
      }
    }
  ],
  "meshes": [
    {
      "name": "Object_0",
      "primitives": [
        {
          "attributes": {
            "NORMAL": 1,
            "POSITION": 0,
            "TEXCOORD_0": 2
          },
          "indices": 3,
          "material": 0,
          "mode": 4
        }
      ]
    },
    {
      "name": "Object_1",
      "primitives": [
        {
          "attributes": {
            "NORMAL": 5,
            "POSITION": 4,
            "TEXCOORD_0": 6
          },
          "indices": 7,
          "material": 4,
          "mode": 4
        }
      ]
    },
    {
      "name": "Object_2",
      "primitives": [
        {
          "attributes": {
            "NORMAL": 9,
            "POSITION": 8,
            "TEXCOORD_0": 10
          },
          "indices": 11,
          "material": 6,
          "mode": 4
        }
      ]
    },
    {
      "name": "Object_3",
      "primitives": [
        {
          "attributes": {
            "NORMAL": 13,
            "POSITION": 12,
            "TEXCOORD_0": 14
          },
          "indices": 15,
          "material": 5,
          "mode": 4
        }
      ]
    },
    {
      "name": "Object_4",
      "primitives": [
        {
          "attributes": {
            "NORMAL": 17,
            "POSITION": 16,
            "TEXCOORD_0": 18
          },
          "indices": 19,
          "material": 2,
          "mode": 4
        }
      ]
    },
    {
      "name": "Object_5",
      "primitives": [
        {
          "attributes": {
            "NORMAL": 21,
            "POSITION": 20,
            "TEXCOORD_0": 22
          },
          "indices": 23,
          "material": 3,
          "mode": 4
        }
      ]
    },
    {
      "name": "Object_6",
      "primitives": [
        {
          "attributes": {
            "NORMAL": 25,
            "POSITION": 24,
            "TEXCOORD_0": 26
          },
          "indices": 27,
          "material": 7,
          "mode": 4
        }
      ]
    },
    {
      "name": "Object_7",
      "primitives": [
        {
          "attributes": {
            "NORMAL": 29,
            "POSITION": 28,
            "TEXCOORD_0": 30
          },
          "indices": 31,
          "material": 1,
          "mode": 4
        }
      ]
    }
  ],
  "nodes": [
    {
      "children": [
        1
      ],
      "matrix": [
        1.0,
        0.0,
        0.0,
        0.0,
        0.0,
        2.220446049250313e-16,
        -1.0,
        0.0,
        0.0,
        1.0,
        2.220446049250313e-16,
        0.0,
        0.0,
        0.0,
        0.0,
        1.0
      ],
      "name": "Sketchfab_model"
    },
    {
      "children": [
        2,
        3,
        4,
        5,
        6,
        7,
        8,
        9
      ],
      "name": "model.obj.cleaner.materialmerger.gles"
    },
    {
      "mesh": 0,
      "name": "Object_2"
    },
    {
      "mesh": 1,
      "name": "Object_3"
    },
    {
      "mesh": 2,
      "name": "Object_4"
    },
    {
      "mesh": 3,
      "name": "Object_5"
    },
    {
      "mesh": 4,
      "name": "Object_6"
    },
    {
      "mesh": 5,
      "name": "Object_7"
    },
    {
      "mesh": 6,
      "name": "Object_8"
    },
    {
      "mesh": 7,
      "name": "Object_9"
    }
  ],
  "samplers": [
    {
      "magFilter": 9729,
      "minFilter": 9987,
      "wrapS": 10497,
      "wrapT": 10497
    }
  ],
  "scene": 0,
  "scenes": [
    {
      "name": "Sketchfab_Scene",
      "nodes": [
        0
      ]
    }
  ],
  "textures": [
    {
      "sampler": 0,
      "source": 0
    },
    {
      "sampler": 0,
      "source": 1
    },
    {
      "sampler": 0,
      "source": 2
    },
    {
      "sampler": 0,
      "source": 3
    },
    {
      "sampler": 0,
      "source": 4
    },
    {
      "sampler": 0,
      "source": 5
    },
    {
      "sampler": 0,
      "source": 6
    },
    {
      "sampler": 0,
      "source": 7
    }
  ]
}
